<svg id="Layer_1" enable-background="new 0 0 66 66" viewBox="0 0 66 66" xmlns="http://www.w3.org/2000/svg"><g><path d="m47.85 8.46h-13.42c-.53 0-.95.43-.95.95 0 .53.43.95.95.95h13.42c.53 0 .95-.43.95-.95 0-.53-.42-.95-.95-.95z"/><path d="m25.79 6.49c-1.61 0-2.91 1.31-2.91 2.91s1.31 2.91 2.91 2.91c1.61 0 2.91-1.31 2.91-2.91s-1.3-2.91-2.91-2.91zm0 3.93c-.56 0-1.01-.45-1.01-1.01s.45-1.01 1.01-1.01 1.01.45 1.01 1.01-.45 1.01-1.01 1.01z"/><path d="m17.86 6.49c-1.61 0-2.91 1.31-2.91 2.91s1.31 2.91 2.91 2.91 2.91-1.31 2.91-2.91-1.3-2.91-2.91-2.91zm0 3.93c-.56 0-1.01-.45-1.01-1.01s.45-1.01 1.01-1.01 1.01.45 1.01 1.01-.45 1.01-1.01 1.01z"/><path d="m9.93 6.49c-1.61 0-2.91 1.31-2.91 2.91s1.31 2.91 2.91 2.91 2.91-1.31 2.91-2.91-1.31-2.91-2.91-2.91zm0 3.93c-.56 0-1.01-.45-1.01-1.01s.45-1.01 1.01-1.01 1.01.45 1.01 1.01-.46 1.01-1.01 1.01z"/><path d="m12.27 30.63h-1.33v-7.33c0-.38-.23-.73-.59-.88s-.76-.07-1.04.21l-2.41 2.41c-.37.37-.37.97 0 1.34s.97.37 1.34 0l.79-.79v5.03h-1.33c-.53 0-.95.43-.95.95s.43.95.95.95h4.57c.53 0 .95-.43.95-.95s-.42-.94-.95-.94z"/><path d="m18.74 22.35c-1.83 0-3.33 1.49-3.33 3.33v3.52c0 1.83 1.49 3.33 3.33 3.33h.03c1.83 0 3.33-1.49 3.33-3.33v-3.52c0-1.84-1.49-3.33-3.36-3.33zm1.46 6.85c0 .79-.64 1.42-1.42 1.42h-.03c-.78 0-1.42-.64-1.42-1.42v-3.52c0-.79.64-1.42 1.46-1.42.79 0 1.42.64 1.42 1.42v3.52z"/><path d="m30.26 30.63h-1.33v-7.33c0-.38-.23-.73-.59-.88s-.76-.07-1.04.21l-2.41 2.41c-.37.37-.37.97 0 1.34s.97.37 1.34 0l.79-.79v5.03h-1.33c-.53 0-.95.43-.95.95s.43.95.95.95h4.57c.53 0 .95-.43.95-.95s-.43-.94-.95-.94z"/><path d="m36.73 22.35c-1.83 0-3.33 1.49-3.33 3.33v3.52c0 1.83 1.49 3.33 3.33 3.33h.03c1.83 0 3.33-1.49 3.33-3.33v-3.52c0-1.84-1.5-3.33-3.36-3.33zm1.45 6.85c0 .79-.64 1.42-1.42 1.42h-.03c-.78 0-1.42-.64-1.42-1.42v-3.52c0-.79.64-1.42 1.46-1.42.79 0 1.42.64 1.42 1.42v3.52z"/><path d="m44.22 26.39.79-.79v5.03h-1.33c-.53 0-.95.43-.95.95s.43.95.95.95h4.57c.53 0 .95-.43.95-.95s-.43-.95-.95-.95h-1.33v-7.33c0-.38-.23-.73-.59-.88s-.76-.07-1.04.21l-2.41 2.41c-.37.37-.37.97 0 1.34.36.38.97.38 1.34.01z"/><path d="m12.27 46.09h-1.33v-7.32c0-.38-.23-.73-.59-.88-.35-.15-.76-.06-1.03.21l-2.42 2.41c-.37.37-.37.97 0 1.34s.97.37 1.34 0l.79-.79v5.03h-1.33c-.53 0-.95.43-.95.95s.43.96.95.96h4.57c.53 0 .95-.43.95-.95s-.42-.96-.95-.96z"/><path d="m18.74 37.82c-1.83 0-3.33 1.49-3.33 3.33v3.52c0 1.83 1.49 3.33 3.33 3.33h.03c1.83 0 3.33-1.49 3.33-3.33v-3.52c0-1.84-1.49-3.33-3.36-3.33zm1.46 6.85c0 .79-.64 1.42-1.42 1.42h-.03c-.78 0-1.42-.64-1.42-1.42v-3.52c0-.79.64-1.42 1.46-1.42.79 0 1.42.64 1.42 1.42v3.52z"/><path d="m30.26 46.09h-1.33v-7.32c0-.38-.23-.73-.59-.88s-.76-.07-1.04.21l-2.41 2.41c-.37.37-.37.97 0 1.34s.97.37 1.34 0l.79-.79v5.03h-1.33c-.53 0-.95.43-.95.95s.42.96.95.96h4.57c.53 0 .95-.43.95-.95s-.43-.96-.95-.96z"/><path d="m36.73 37.82c-1.83 0-3.33 1.49-3.33 3.33v3.52c0 1.83 1.49 3.33 3.33 3.33h.03c1.83 0 3.33-1.49 3.33-3.33v-3.52c0-1.84-1.5-3.33-3.36-3.33zm1.45 6.85c0 .79-.64 1.42-1.42 1.42h-.03c-.78 0-1.42-.64-1.42-1.42v-3.52c0-.79.64-1.42 1.46-1.42.79 0 1.42.64 1.42 1.42v3.52z"/><path d="m61.17 43.98v-4.11c0-2.11-.82-4.1-2.32-5.59-1.27-1.27-2.89-2.05-4.64-2.26v-17.23-5.34c0-3.52-2.86-6.38-6.38-6.38h-39.83c-3.52 0-6.38 2.86-6.38 6.38v5.34 35.33c0 3.52 2.86 6.38 6.38 6.38h34.12v3.06c0 1.85 1.51 3.36 3.36 3.36h15.54c1.85 0 3.36-1.51 3.36-3.36v-12.23c.01-1.81-1.43-3.28-3.21-3.35zm-1.91-4.12v4.1h-12.02v-4.1c0-3.31 2.7-6.01 6.01-6.01 1.61 0 3.12.63 4.25 1.76 1.14 1.14 1.76 2.65 1.76 4.25zm-55.75-30.41c0-2.47 2.01-4.48 4.48-4.48h39.82c2.47 0 4.48 2.01 4.48 4.48v4.39h-48.78zm4.49 45.15c-2.47 0-4.48-2.01-4.48-4.48v-34.38h48.78v16.27c-3.92.47-6.96 3.81-6.96 7.85v4.11c-1.79.08-3.22 1.54-3.22 3.35v7.28zm54.49 4.97c0 .81-.66 1.46-1.46 1.46h-15.55c-.81 0-1.46-.66-1.46-1.46v-12.24c0-.81.66-1.46 1.46-1.46h.81 13.92.81c.81 0 1.46.66 1.46 1.46v12.24z"/><path d="m55.38 49.14c-.75-.63-1.74-.89-2.71-.72-1.3.23-2.36 1.24-2.64 2.53-.24 1.11.09 2.24.86 3.03l-.54 3.12c-.06.36.04.72.27 1s.57.44.94.44h3.39c.36 0 .7-.16.94-.44.23-.28.33-.64.27-1l-.54-3.12c.6-.61.93-1.43.93-2.3.01-.99-.42-1.91-1.17-2.54zm-1.69 4.79.46 2.7h-1.79l.46-2.7c.07-.43-.1-.88-.45-1.16-.42-.34-.61-.87-.49-1.42.11-.53.57-.96 1.11-1.06.43-.07.84.03 1.16.31.32.27.5.66.5 1.07 0 .43-.19.83-.53 1.1-.34.28-.51.72-.43 1.16z"/></g></svg>