<svg id="Layer_1" enable-background="new 0 0 64 64" height="512" viewBox="0 0 64 64" width="512" xmlns="http://www.w3.org/2000/svg"><g><path d="m14 7c-3.9 0-7 3.1-7 7s3.1 7 7 7 7-3.1 7-7-3.1-7-7-7zm0 10c-1.7 0-3-1.3-3-3s1.3-3 3-3 3 1.3 3 3-1.3 3-3 3z"/><path d="m50 21c3.9 0 7-3.1 7-7s-3.1-7-7-7-7 3.1-7 7 3.1 7 7 7zm0-10c1.7 0 3 1.3 3 3s-1.3 3-3 3-3-1.3-3-3 1.3-3 3-3z"/><path d="m32 25c-3.9 0-7 3.1-7 7s3.1 7 7 7 7-3.1 7-7-3.1-7-7-7zm0 10c-1.7 0-3-1.3-3-3s1.3-3 3-3 3 1.3 3 3-1.3 3-3 3z"/><path d="m14 43c-3.9 0-7 3.1-7 7s3.1 7 7 7 7-3.1 7-7-3.1-7-7-7zm0 10c-1.7 0-3-1.3-3-3s1.3-3 3-3 3 1.3 3 3-1.3 3-3 3z"/><path d="m50 43c-3.9 0-7 3.1-7 7s3.1 7 7 7 7-3.1 7-7-3.1-7-7-7zm0 10c-1.7 0-3-1.3-3-3s1.3-3 3-3 3 1.3 3 3-1.3 3-3 3z"/><path d="m28 21h8c1.1 0 2-.9 2-2s-.9-2-2-2h-2v-8c0-1.1-.9-2-2-2h-3c-1.1 0-2 .9-2 2s.9 2 2 2h1v6h-2c-1.1 0-2 .9-2 2s.9 2 2 2z"/><path d="m36 53h-2v-8c0-1.1-.9-2-2-2h-3c-1.1 0-2 .9-2 2s.9 2 2 2h1v6h-2c-1.1 0-2 .9-2 2s.9 2 2 2h8c1.1 0 2-.9 2-2s-.9-2-2-2z"/><path d="m10 35c-1.1 0-2 .9-2 2s.9 2 2 2h8c1.1 0 2-.9 2-2s-.9-2-2-2h-2v-8c0-1.1-.9-2-2-2h-3c-1.1 0-2 .9-2 2s.9 2 2 2h1v6z"/><path d="m46 35c-1.1 0-2 .9-2 2s.9 2 2 2h8c1.1 0 2-.9 2-2s-.9-2-2-2h-2v-8c0-1.1-.9-2-2-2h-3c-1.1 0-2 .9-2 2s.9 2 2 2h1v6z"/></g></svg>