<svg clip-rule="evenodd" fill-rule="evenodd" height="512" image-rendering="optimizeQuality" shape-rendering="geometricPrecision" text-rendering="geometricPrecision" viewBox="0 0 1706.66 1706.66" width="512" xmlns="http://www.w3.org/2000/svg" xmlns:xlink="http://www.w3.org/1999/xlink" xmlns:xodm="http://www.corel.com/coreldraw/odm/2003"><linearGradient id="id0" gradientUnits="userSpaceOnUse" x1="-1.63" x2="1705.02" y1="862.9" y2="862.9"><stop offset="0" stop-color="#ffb800"/><stop offset="1" stop-color="#ff5329"/></linearGradient><g id="Layer_x0020_1"><path d="m1381.54 1034.44c-178.36 0-323.48-145.11-323.48-323.48 0-178.36 145.11-323.48 323.48-323.48s323.5 145.1 323.5 323.48c0 178.39-145.11 323.48-323.5 323.48zm-248.03 215.99h-440.85c-21.37 0-38.78-17.39-38.78-38.78v-95.39c0-21.38 17.41-38.78 38.78-38.78l440.85-.01c21.37 0 38.77 17.39 38.77 38.78v95.39c.01 21.39-17.38 38.78-38.77 38.78zm-67.92-68.32h-305.01c-23.9 0-23.89-36.3 0-36.3h305.01c23.89 0 23.89 36.3 0 36.3zm115.5 162.42h-38.93v233.71h121.46c43.81 0 43.81 66.54 0 66.54h-309.44c-43.81 0-43.81-66.54 0-66.54h121.44v-233.71h-856.41v233.71h121.44c43.8 0 43.82 66.54 0 66.54-103.14 0-206.28 0-309.43 0-43.81 0-43.81-66.54 0-66.54h121.44v-233.71h-38.93c-55.49 0-100.65-45.16-100.65-100.66v-159.84c0-55.49 45.15-100.65 100.65-100.65h38.93v-90.04h-38.93c-55.49 0-100.65-45.16-100.65-100.65v-159.84c0-55.49 45.15-100.65 100.65-100.65h38.93v-90.05h-38.93c-55.49 0-100.65-45.16-100.65-100.65v-159.84c0-55.49 45.15-100.65 100.65-100.65h1067.34c55.49 0 100.65 45.16 100.65 100.65 0 34.73 3.47 162.36-4 187.97-48.71 14.85-93.04 39.83-130.49 72.52h-5.08v4.51c-25.94 23.52-48.41 50.79-66.55 80.94v-85.46h-856.41v90.05h853.69c-11.7 20.13-21.49 41.49-29.12 63.85l-351.13.01c-38.07 0-69.03 30.96-69.03 69.03v95.39c0 38.07 30.95 69.03 69.03 69.03h352.41c7.91 22.38 17.98 43.75 29.98 63.84h-855.83v90.04h856.41v-89.07c18.14 30.16 40.61 57.43 66.55 80.95 0 2.44.06 5.19.11 8.12h9.19c36.22 30.64 78.61 54.2 125.02 68.54 3.41 10.09 5.25 20.89 5.25 32.11v159.86c.01 55.48-45.15 100.63-100.64 100.63zm-933.55-104.39h-83.83c-55.44 0-45.03-64.93-45.03-105.74 0-24.83 20.2-45.02 45.03-45.02l83.83-.01c55.42 0 45.04 64.9 45.02 105.74-.01 24.81-20.2 45.03-45.02 45.03zm-83.85-112.77c-3.81 0-7.03 3.22-7.03 7.03v60.71c0 3.81 3.22 7.04 7.03 7.04h83.84c3.81 0 7.03-3.22 7.03-7.03v-60.71c0-3.81-3.22-7.03-7.03-7.03h-83.84zm298.84 112.77h-86.33c-24.78 0-44.93-20.17-44.93-44.93v-62.5c0-24.78 20.16-44.93 44.93-44.93h86.33c24.78 0 44.93 20.17 44.93 44.93v62.5c0 24.76-20.17 44.93-44.93 44.93zm-86.33-116.08c-4.68 0-8.63 3.96-8.63 8.65v62.5c0 4.69 3.96 8.65 8.63 8.65h86.33c4.68 0 8.63-3.96 8.63-8.65v-62.5c0-4.69-3.96-8.65-8.63-8.65zm757.31 156.62h-440.85c-38.07 0-69.03-30.96-69.03-69.02v-95.39c0-38.07 30.96-69.03 69.03-69.03l440.85-.01c38.07 0 69.02 30.95 69.02 69.03v95.39c0 38.08-30.93 69.03-69.02 69.03zm-97.65-481.43h-343.2c-21.37 0-38.78-17.39-38.78-38.78v-95.39c0-21.37 17.41-38.78 38.78-38.78h342.32c-5.39 22.06-8.72 44.91-9.79 68.34h-264.6c-23.89 0-23.9 36.29 0 36.29h264.78c1.3 23.44 4.87 46.29 10.5 68.32zm169.66-115.01c5.93-14.57 19.8-24.82 31.86-34.63v-55.53c.1-71.76 58.5-130.11 130.29-130.11h27.8c71.85 0 130.29 58.44 130.29 130.3v57.29c23.13 12 38.98 36.17 38.98 63.98v139.53c0 25.37-20.64 45.99-46 45.99h-274.39c-25.87 0-45.85-20.81-46.01-45.99v-139.53c0-11.21 2.58-21.83 7.17-31.3zm-957.98 104.72h-83.83c-55.44 0-45.03-64.93-45.03-105.75 0-24.82 20.2-45.02 45.03-45.02l83.83-.01c55.42 0 45.04 64.91 45.02 105.74-.01 24.81-20.2 45.04-45.02 45.04zm-83.85-112.78c-3.81 0-7.03 3.22-7.03 7.03v60.71c0 3.81 3.22 7.04 7.03 7.04h83.84c3.81 0 7.03-3.23 7.03-7.04v-60.72c0-3.81-3.22-7.03-7.03-7.03h-83.84zm298.84 112.78h-86.33c-24.78 0-44.93-20.17-44.93-44.94v-62.5c0-24.78 20.16-44.93 44.93-44.93h86.33c24.78 0 44.93 20.17 44.93 44.93v62.5c0 24.77-20.17 44.94-44.93 44.94zm-86.33-116.09c-4.68 0-8.63 3.96-8.63 8.65v62.5c0 4.69 3.96 8.65 8.63 8.65h86.33c4.68 0 8.63-3.96 8.63-8.65v-62.5c0-4.69-3.96-8.65-8.63-8.65zm757.31-324.81h-440.85c-21.37 0-38.78-17.39-38.78-38.78v-95.39c0-21.38 17.41-38.78 38.78-38.78l440.85-.01c21.37 0 38.77 17.39 38.77 38.78v95.39c.01 21.38-17.38 38.78-38.77 38.78zm-67.92-68.32h-305.01c-23.9 0-23.89-36.3 0-36.3h305.01c23.89 0 23.89 36.3 0 36.3zm-818.05 58.02h-83.83c-55.44 0-45.03-64.93-45.03-105.74 0-24.82 20.2-45.02 45.03-45.02l83.83-.01c55.42 0 45.04 64.91 45.02 105.74-.01 24.81-20.2 45.03-45.02 45.03zm-83.85-112.78c-3.81 0-7.03 3.22-7.03 7.04v60.71c0 3.81 3.22 7.03 7.03 7.03h83.84c3.81 0 7.03-3.22 7.03-7.03v-60.72c0-3.81-3.22-7.03-7.03-7.03zm298.84 112.78h-86.33c-24.78 0-44.93-20.17-44.93-44.93v-62.5c0-24.78 20.16-44.93 44.93-44.93h86.33c24.78 0 44.93 20.16 44.93 44.93v62.5c0 24.76-20.17 44.93-44.93 44.93zm-86.33-116.07c-4.68 0-8.63 3.96-8.63 8.65v62.5c0 4.68 3.96 8.65 8.63 8.65h86.33c4.68 0 8.63-3.96 8.63-8.65v-62.5c0-4.69-3.96-8.65-8.63-8.65zm757.31 156.62h-440.85c-38.07 0-69.03-30.95-69.03-69.02v-95.39c0-38.07 30.96-69.03 69.03-69.03h440.85c38.07 0 69.02 30.95 69.02 69.03v95.39c0 38.08-30.93 69.02-69.02 69.02zm319.04 265.2v-49.26c0-31.46-25.61-57.11-57.08-57.1l-27.8.01c-31.47.01-57.09 25.62-57.09 57.1v49.25zm-91.39 154.74c-48.41-18.39-41.61-102.29 20.39-102.29 62.02 0 68.83 83.91 20.39 102.29.73 22.13.47 43.59-20.39 43.59-20.85 0-21.12-21.48-20.39-43.59zm20.39-62.37c-17.1 0-17.1 26 0 26 17.12 0 17.12-26 0-26zm137.21 198.44h-274.39c-43.73 0-79.28-35.53-79.28-79.26v-139.53c0-32.98 15.24-62.45 39.03-81.77v-39.51c0-90.21 73.35-163.56 163.56-163.56h27.8c90.22 0 163.56 73.35 163.56 163.56v39.54c23.77 19.31 38.98 48.78 38.98 81.73v139.53c0 43.72-35.54 79.26-79.27 79.26z" fill="url(#id0)"/></g></svg>