<svg id="Flat" viewBox="0 0 64 64" xmlns="http://www.w3.org/2000/svg"><path d="m60 16v40c0 2.2091-1.7909 4-4 4h-34c-2.2091 0-4-1.7909-4-4v-48c0-2.2091 1.7909-4 4-4h26z" fill="#eceff1"/><path d="m60 16h-12v-12z" fill="#cfd8dc"/><path d="m43 46h-19.8376c-1.5437-3.5304-5.0627-6-9.1624-6-5.5228 0-10 4.4771-10 10s4.4772 10 10 10c4.0997 0 7.6187-2.4695 9.1624-6h5.3376l3-3 3 3 3-3 3 3h2.5l5-4zm-29 8c-2.2056 0-4-1.7944-4-4s1.7944-4 4-4 4 1.7944 4 4-1.7944 4-4 4z" fill="#ffb300"/><g fill="#37474f"><path d="m42 17h-18c-.5522 0-1-.4478-1-1s.4478-1 1-1h18c.5522 0 1 .4478 1 1s-.4478 1-1 1z"/><path d="m54 23h-30c-.5522 0-1-.4478-1-1s.4478-1 1-1h30c.5522 0 1 .4478 1 1s-.4478 1-1 1z"/><path d="m54 29h-30c-.5522 0-1-.4478-1-1s.4478-1 1-1h30c.5522 0 1 .4478 1 1s-.4478 1-1 1z"/><path d="m54 35h-30c-.5522 0-1-.4478-1-1s.4478-1 1-1h30c.5522 0 1 .4478 1 1s-.4478 1-1 1z"/><path d="m54 41h-26c-.5522 0-1-.4478-1-1s.4478-1 1-1h26c.5522 0 1 .4478 1 1s-.4478 1-1 1z"/></g></svg>