<svg id="Layer_1" enable-background="new 0 0 512 512" height="512" viewBox="0 0 512 512" width="512" xmlns="http://www.w3.org/2000/svg" xmlns:xlink="http://www.w3.org/1999/xlink"><linearGradient id="SVGID_1_" gradientUnits="userSpaceOnUse" x1="406.534" x2="107.409" y1="488.62" y2="61.426"><stop offset="0" stop-color="#fff33b"/><stop offset="1" stop-color="#ed683c"/></linearGradient><path d="m394.396 364.833c64.296 0 116.604-52.308 116.604-116.603 0-26.197-9.039-51.95-25.452-72.515-14.425-18.074-34.018-31.564-55.803-38.566 1.047-4.979 1.576-10.067 1.576-15.205 0-40.591-33.023-73.614-73.615-73.614-12.344 0-24.318 3.044-35.034 8.858-24.581-29.882-61.6-47.517-100.451-47.517-69.909 0-127.102 55.486-129.853 124.732-24.594 5.482-46.927 18.924-63.449 38.32-18.003 21.137-27.919 47.953-27.919 75.508 0 64.295 52.308 116.603 116.604 116.603h130.396v27.709h-111.771c-4.418 0-8 3.582-8 8v31.628c-15.754 3.64-27.538 17.775-27.538 34.619 0 19.596 15.942 35.539 35.538 35.539s35.539-15.942 35.539-35.539c0-16.845-11.784-30.979-27.539-34.619v-23.628h103.771v23.628c-15.755 3.64-27.539 17.775-27.539 34.619 0 19.596 15.942 35.539 35.539 35.539 19.596 0 35.538-15.942 35.538-35.539 0-16.845-11.784-30.979-27.538-34.619v-23.628h103.771v23.628c-15.754 3.64-27.538 17.775-27.538 34.619 0 19.596 15.942 35.539 35.538 35.539s35.538-15.942 35.538-35.539c0-16.845-11.784-30.979-27.538-34.619v-31.628c0-4.418-3.582-8-8-8h-111.771v-27.709h130.396zm-238.629 101.957c0 10.773-8.765 19.539-19.539 19.539s-19.538-8.765-19.538-19.539 8.765-19.539 19.538-19.539 19.539 8.766 19.539 19.539zm119.771 0c0 10.773-8.765 19.539-19.538 19.539s-19.539-8.765-19.539-19.539 8.765-19.539 19.539-19.539 19.538 8.766 19.538 19.539zm119.771 0c0 10.773-8.765 19.539-19.538 19.539s-19.538-8.765-19.538-19.539 8.765-19.539 19.538-19.539 19.538 8.766 19.538 19.539zm-378.309-218.559c0-48.804 36.354-91.497 84.563-99.309 3.908-.633 6.765-4.03 6.72-7.989l-.008-.543c-.004-.253-.009-.507-.009-.762 0-62.835 51.121-113.956 113.956-113.956 36.226 0 70.638 17.49 92.054 46.785 2.549 3.487 7.405 4.321 10.972 1.884 9.583-6.548 20.807-10.01 32.458-10.01 31.769 0 57.615 25.846 57.615 57.614 0 6.232-.99 12.363-2.943 18.224-.707 2.122-.493 4.442.589 6.399 1.082 1.958 2.934 3.372 5.106 3.902 45.294 11.038 76.927 51.239 76.927 97.76 0 55.473-45.13 100.603-100.604 100.603h-276.792c-55.473 0-100.604-45.129-100.604-100.602zm126.162-103.84v-52.418c0-4.418 3.582-8 8-8s8 3.582 8 8v52.418c0 4.418-3.582 8-8 8s-8-3.581-8-8zm54.419 8c7.72 0 14-6.28 14-14v-40.419c0-7.719-6.28-14-14-14h-14.21c-7.719 0-14 6.28-14 14v40.419c0 7.719 6.28 14 14 14zm-12.21-52.418h10.209v36.418h-10.209zm96.837 52.418c-4.418 0-8-3.582-8-8v-52.418c0-4.418 3.582-8 8-8s8 3.582 8 8v52.418c0 4.419-3.581 8-8 8zm-46.418 0h14.21c7.719 0 14-6.28 14-14v-40.419c0-7.719-6.28-14-14-14h-14.21c-7.72 0-14 6.28-14 14v40.419c0 7.72 6.28 14 14 14zm2-52.418h10.209v36.418h-10.209zm123.048 52.418c-4.418 0-8-3.582-8-8v-52.418c0-4.418 3.582-8 8-8s8 3.582 8 8v52.418c0 4.419-3.582 8-8 8zm-46.419 0h14.21c7.719 0 14-6.28 14-14v-40.419c0-7.719-6.28-14-14-14h-14.21c-7.72 0-14 6.28-14 14v40.419c0 7.72 6.28 14 14 14zm2-52.418h10.209v36.418h-10.209zm-224.782 139.761h14.209c7.72 0 14-6.28 14-14v-40.419c0-7.72-6.28-14-14-14h-14.209c-7.72 0-14 6.28-14 14v40.419c0 7.72 6.28 14 14 14zm2-52.419h10.209v36.419h-10.209zm88.838 44.419v-52.419c0-4.418 3.582-8 8-8s8 3.582 8 8v52.419c0 4.418-3.582 8-8 8s-8-3.582-8-8zm-38.419 8h14.209c7.72 0 14-6.28 14-14v-40.419c0-7.72-6.28-14-14-14h-14.209c-7.72 0-14 6.28-14 14v40.419c0 7.72 6.28 14 14 14zm2-52.419h10.209v36.419h-10.209zm123.048-16c4.418 0 8 3.582 8 8v52.419c0 4.418-3.582 8-8 8s-8-3.582-8-8v-52.419c0-4.419 3.582-8 8-8zm-60.418 54.419c0 7.72 6.28 14 14 14h14.209c7.72 0 14-6.28 14-14v-40.419c0-7.72-6.28-14-14-14h-14.209c-7.72 0-14 6.28-14 14zm16-38.419h10.209v36.419h-10.209zm193.676 44.419v-52.419c0-4.418 3.582-8 8-8s8 3.582 8 8v52.419c0 4.418-3.582 8-8 8s-8-3.582-8-8zm-70.628-60.419c4.418 0 8 3.582 8 8v52.419c0 4.418-3.582 8-8 8s-8-3.582-8-8v-52.419c0-4.419 3.581-8 8-8zm32.209 68.419h14.21c7.719 0 14-6.28 14-14v-40.419c0-7.72-6.28-14-14-14h-14.21c-7.719 0-14 6.28-14 14v40.419c0 7.72 6.281 14 14 14zm2-52.419h10.209v36.419h-10.209zm-80.63 52.419h14.21c7.719 0 14-6.28 14-14v-40.419c0-7.72-6.28-14-14-14h-14.21c-7.719 0-14 6.28-14 14v40.419c.001 7.72 6.281 14 14 14zm2.001-52.419h10.209v36.419h-10.209zm-131.047 79.342v52.419c0 4.418-3.582 8-8 8s-8-3.582-8-8v-52.419c0-4.418 3.582-8 8-8s8 3.582 8 8zm38.42-8h-14.21c-7.72 0-14 6.28-14 14v40.419c0 7.72 6.28 14 14 14h14.21c7.719 0 14-6.28 14-14v-40.419c-.001-7.719-6.281-14-14-14zm-2.001 52.419h-10.209v-36.419h10.209zm94.628-44.419v52.419c0 4.418-3.582 8-8 8s-8-3.582-8-8v-52.419c0-4.418 3.582-8 8-8s8 3.582 8 8zm-40.209-8h-14.209c-7.72 0-14 6.28-14 14v40.419c0 7.72 6.28 14 14 14h14.209c7.72 0 14-6.28 14-14v-40.419c0-7.719-6.28-14-14-14zm-2 52.419h-10.209v-36.419h10.209zm120.839-44.419v52.419c0 4.418-3.582 8-8 8s-8-3.582-8-8v-52.419c0-4.418 3.582-8 8-8s8 3.582 8 8zm-40.21-8h-14.209c-7.72 0-14 6.28-14 14v40.419c0 7.72 6.28 14 14 14h14.209c7.72 0 14-6.28 14-14v-40.419c0-7.719-6.28-14-14-14zm-2 52.419h-10.209v-36.419h10.209zm-246.096-44.419v52.419c0 4.418-3.582 8-8 8s-8-3.582-8-8v-52.419c0-4.418 3.582-8 8-8s8 3.582 8 8zm38.419-8h-14.209c-7.72 0-14 6.28-14 14v40.419c0 7.72 6.28 14 14 14h14.209c7.72 0 14-6.28 14-14v-40.419c0-7.719-6.281-14-14-14zm-2 52.419h-10.209v-36.419h10.209zm276.096 16h14.21c7.72 0 14-6.28 14-14v-40.419c0-7.72-6.28-14-14-14h-14.21c-7.719 0-14 6.28-14 14v40.419c0 7.72 6.281 14 14 14zm2-52.419h10.209v36.419h-10.209z" fill="url(#SVGID_1_)"/></svg>