<svg clip-rule="evenodd" fill-rule="evenodd" stroke-linejoin="round" stroke-miterlimit="2" viewBox="0 0 510 510" xmlns="http://www.w3.org/2000/svg" xmlns:xlink="http://www.w3.org/1999/xlink"><linearGradient id="_Linear1" gradientTransform="matrix(510 -510 18.25 18.25 0 510)" gradientUnits="userSpaceOnUse" x1="0" x2="1" y1="0" y2="0"><stop offset="0" stop-color="#fcc60e"/><stop offset="1" stop-color="#e92e29"/></linearGradient><path d="m306.775 386.76h-272.713c-14.883 0-27.062-12.189-27.062-27.037v-310.448c0-14.881 12.182-27.062 27.062-27.062h399.63c14.883 0 27.037 12.178 27.037 27.062v210.162c10.122 12.417 16.207 28.239 16.207 45.414v18.905h6.374c10.873 0 19.69 8.862 19.69 19.689v124.653c0 10.872-8.817 19.689-19.69 19.689h-156.818c-10.868 0-19.717-8.822-19.717-19.689zm137.954-141.876v-138.653h-202.864v59.268l51.339 21.982c.954.409 1.799.988 2.506 1.695l1.339-1.339c3.122-3.122 8.191-3.122 11.313 0s3.122 8.191 0 11.313l-5.336 5.336 5.336 5.336c3.122 3.123 3.122 8.192 0 11.314-2.805 2.805-7.182 3.09-10.306.854v21.324c0 1.049-.022 2.095-.065 3.136 3.128-2.286 7.547-2.017 10.371.807 3.122 3.122 3.122 8.192 0 11.314l-5.336 5.336 5.336 5.336c3.122 3.122 3.122 8.192 0 11.314s-8.191 3.122-11.313 0l-5.336-5.336-1.324 1.323c-9.468 19.482-26.992 34.616-48.524 40.612v53.604h64.91v-27.315c0-.783.046-1.557.136-2.318-3.084 1.908-7.188 1.525-9.862-1.15l-5.336-5.336-5.336 5.336c-3.123 3.123-8.192 3.123-11.314 0-3.122-3.122-3.122-8.191 0-11.313l5.336-5.336-5.336-5.336c-3.122-3.122-3.122-8.192 0-11.314s8.191-3.122 11.314 0l5.336 5.336 5.336-5.336c3.122-3.122 8.191-3.122 11.313 0s3.122 8.192 0 11.314l-5.336 5.336 5.336 5.336c.993.992 1.67 2.181 2.031 3.442 3.575-5.042 9.46-8.35 16.099-8.35h6.347v-18.905c0-7.758 1.243-15.24 3.539-22.257-2.7.766-5.726.087-7.85-2.037-3.122-3.122-3.122-8.192 0-11.314l5.336-5.336-5.336-5.336c-3.122-3.122-3.122-8.192 0-11.314s8.192-3.122 11.314 0l5.336 5.336 5.336-5.336c3.107-3.106 8.141-3.122 11.267-.046 12.045-9.047 26.986-14.422 43.12-14.422 14.698 0 28.403 4.46 39.828 12.095zm0-154.653v-40.956c0-6.08-4.957-11.062-11.037-11.062h-399.63c-6.083 0-11.062 4.979-11.062 11.062v40.956zm-421.729 16v253.492c0 6.065 4.982 11.037 11.062 11.037h191.803v-53.599c-14.267-3.972-26.776-11.958-36.347-22.565-1.116.591-2.387.925-3.737.925h-21.985c-4.416 0-8-3.584-8-8 0-4.415 3.584-8 8-8h15.071c-5.045-9.327-8.202-19.76-8.996-30.732h-6.075c-4.416 0-8-3.585-8-8s3.584-8 8-8h5.878v-30.733h-5.878c-4.416 0-8-3.584-8-8 0-4.415 3.584-8 8-8h14.056l48.013-20.565v-59.26zm437.936 217.525v-18.905c0-30.831-25.204-56.062-56.035-56.062-19.476 0-36.716 10.067-46.774 25.254-.119.2-.247.396-.384.588-5.63 8.735-8.904 19.114-8.904 30.22v18.905h13.346v-18.905c0-23.459 19.291-42.743 42.716-42.743s42.716 19.284 42.716 42.743v18.905zm-82.751 0h53.432v-18.905c0-14.675-12.062-26.743-26.716-26.743s-26.716 12.068-26.716 26.743zm-97.946-65.795c1.188-4.712 1.817-9.622 1.817-14.647v-43.201l-48.201-20.638s-48.181 20.637-48.181 20.637v43.202c0 28.602 20.375 53.472 48.183 59.337 19.037-4.013 34.589-16.925 42.511-33.841.087-.212.183-.42.289-.625 1.436-3.16 2.608-6.457 3.488-9.858.03-.122.061-.244.094-.366zm46.253 81.795c-2.043 0-3.717 1.655-3.717 3.689v124.653c0 2.042 1.674 3.689 3.717 3.689h156.818c2.038 0 3.69-1.652 3.69-3.689v-124.653c0-2.029-1.652-3.689-3.69-3.689zm78.409 13.536c17.001 0 30.782 13.808 30.782 30.809 0 9.41-4.189 17.818-10.821 23.464v30.726c0 10.998-9.007 19.96-19.961 19.96-10.999 0-19.961-8.962-19.961-19.96 0 0 0-30.725.001-30.725-6.639-5.646-10.85-14.056-10.85-23.465 0-16.998 13.812-30.809 30.81-30.809zm0 16c-8.171 0-14.81 6.638-14.81 14.809 0 5.337 2.821 10.003 7.048 12.61 2.363 1.457 3.801 4.034 3.801 6.809v34.771c0 2.182 1.779 3.96 3.961 3.96 2.173 0 3.961-1.778 3.961-3.96v-34.771c0-2.775 1.438-5.352 3.801-6.809 4.226-2.606 7.02-7.275 7.02-12.61 0-8.168-6.614-14.809-14.782-14.809zm-348.036-120.503c-4.415 0-8-3.585-8-8s3.585-8 8-8h21.986c4.415 0 8 3.585 8 8s-3.585 8-8 8zm53.465 93.465c-4.415 0-8-3.585-8-8 0-4.416 3.585-8 8-8h21.986c4.415 0 8 3.584 8 8 0 4.415-3.585 8-8 8zm-53.465-186.93c-4.415 0-8-3.585-8-8s3.585-8 8-8h21.986c4.415 0 8 3.585 8 8s-3.585 8-8 8zm53.465 140.197c-4.415 0-8-3.584-8-8 0-4.415 3.585-8 8-8h21.986c4.415 0 8 3.585 8 8 0 4.416-3.585 8-8 8zm53.466 46.733c-4.416 0-8-3.585-8-8 0-4.416 3.584-8 8-8h21.985c4.416 0 8 3.584 8 8 0 4.415-3.584 8-8 8zm-53.466-93.465c-4.415 0-8-3.585-8-8s3.585-8 8-8h21.986c4.415 0 8 3.585 8 8s-3.585 8-8 8zm0-46.733c-4.415 0-8-3.584-8-8 0-4.415 3.585-8 8-8h21.986c4.415 0 8 3.585 8 8 0 4.416-3.585 8-8 8zm53.466-46.732c-4.416 0-8-3.585-8-8s3.584-8 8-8h21.985c4.416 0 8 3.585 8 8s-3.584 8-8 8zm-53.466 0c-4.415 0-8-3.585-8-8s3.585-8 8-8h21.986c4.415 0 8 3.585 8 8s-3.585 8-8 8zm-53.465 140.197c-4.415 0-8-3.584-8-8 0-4.415 3.585-8 8-8h21.986c4.415 0 8 3.585 8 8 0 4.416-3.585 8-8 8zm0 46.733c-4.415 0-8-3.585-8-8 0-4.416 3.585-8 8-8h21.986c4.415 0 8 3.584 8 8 0 4.415-3.585 8-8 8zm0-140.198c-4.415 0-8-3.584-8-8 0-4.415 3.585-8 8-8h21.986c4.415 0 8 3.585 8 8 0 4.416-3.585 8-8 8zm95.373-126.714c-6.129 0-11.133-4.979-11.133-11.108 0-6.128 5.004-11.132 11.133-11.132 6.128 0 11.132 5.004 11.132 11.132 0 6.129-5.004 11.108-11.132 11.108zm-85.43 0c-6.129 0-11.132-4.979-11.132-11.108 0-6.128 5.003-11.132 11.132-11.132s11.132 5.004 11.132 11.132c0 6.129-5.003 11.108-11.132 11.108zm42.727 0c-6.129 0-11.132-4.979-11.132-11.108 0-6.128 5.003-11.132 11.132-11.132s11.107 5.004 11.107 11.132c0 6.129-4.978 11.108-11.107 11.108zm224.329 69.724-5.336-5.336c-3.122-3.122-3.122-8.192 0-11.314s8.192-3.122 11.314 0l5.336 5.336 5.336-5.336c3.122-3.122 8.191-3.122 11.314 0 3.122 3.122 3.122 8.192 0 11.314l-5.336 5.336 5.336 5.336c3.122 3.122 3.122 8.191 0 11.313-3.123 3.123-8.192 3.123-11.314 0l-5.336-5.336-5.336 5.336c-3.122 3.123-8.192 3.123-11.314 0-3.122-3.122-3.122-8.191 0-11.313zm0 59.42-5.336-5.336c-3.122-3.122-3.122-8.191 0-11.313s8.192-3.122 11.314 0l5.336 5.336 5.336-5.336c3.122-3.122 8.191-3.122 11.314 0 3.122 3.122 3.122 8.191 0 11.313l-5.336 5.336 5.336 5.336c3.122 3.123 3.122 8.192 0 11.314-3.123 3.122-8.192 3.122-11.314 0l-5.336-5.336-5.336 5.336c-3.122 3.122-8.192 3.122-11.314 0s-3.122-8.191 0-11.314zm53.465 0-5.336-5.336c-3.122-3.122-3.122-8.191 0-11.313 3.123-3.122 8.192-3.122 11.314 0l5.336 5.336 5.336-5.336c3.122-3.122 8.192-3.122 11.314 0s3.122 8.191 0 11.313l-5.336 5.336 5.336 5.336c3.122 3.123 3.122 8.192 0 11.314s-8.192 3.122-11.314 0l-5.336-5.336-5.336 5.336c-3.122 3.122-8.191 3.122-11.314 0-3.122-3.122-3.122-8.191 0-11.314zm-106.93-59.42-5.336-5.336c-3.122-3.122-3.122-8.192 0-11.314s8.191-3.122 11.314 0l5.336 5.336 5.336-5.336c3.122-3.122 8.191-3.122 11.313 0s3.122 8.192 0 11.314l-5.336 5.336 5.336 5.336c3.122 3.122 3.122 8.191 0 11.313-3.122 3.123-8.191 3.123-11.313 0l-5.336-5.336-5.336 5.336c-3.123 3.123-8.192 3.123-11.314 0-3.122-3.122-3.122-8.191 0-11.313zm106.93 0-5.336-5.336c-3.122-3.122-3.122-8.192 0-11.314 3.123-3.122 8.192-3.122 11.314 0l5.336 5.336 5.336-5.336c3.122-3.122 8.192-3.122 11.314 0s3.122 8.192 0 11.314l-5.336 5.336 5.336 5.336c3.122 3.122 3.122 8.191 0 11.313-3.122 3.123-8.192 3.123-11.314 0l-5.336-5.336-5.336 5.336c-3.122 3.123-8.191 3.123-11.314 0-3.122-3.122-3.122-8.191 0-11.313zm-184.774 96.412c-3.125-3.12-3.129-8.189-.01-11.314 3.12-3.125 8.189-3.129 11.314-.01l14.064 14.041 26.226-23.778c3.27-2.966 8.334-2.718 11.3.553 2.965 3.271 2.718 8.334-.553 11.3l-31.864 28.891c-3.159 2.864-8.009 2.747-11.026-.265z" fill="url(#_Linear1)"/></svg>