<svg id="Layer_1" height="400" viewBox="0 0 384 384" width="400" xmlns="http://www.w3.org/2000/svg">
  <g fill="#bebebe">
    <path d="m45.255 265.762c-14.61 0-26.497-11.887-26.497-26.497v-22.193c0-14.61 11.887-26.497 26.497-26.497s26.497 11.887 26.497 26.497v22.193c0 14.61-11.887 26.497-26.497 26.497zm0-56.445c-4.275 0-7.747 3.473-7.747 7.747v22.193c0 4.275 3.473 7.747 7.747 7.747s7.747-3.473 7.747-7.747v-22.193c0-4.275-3.473-7.747-7.747-7.747z"/>
    <path d="m45.255 95.82c-14.61 0-26.497-11.887-26.497-26.497v-22.193c0-14.61 11.887-26.497 26.497-26.497s26.497 11.887 26.497 26.497v22.193c0 14.61-11.887 26.497-26.497 26.497zm0-56.445c-4.275 0-7.747 3.473-7.747 7.747v22.193c0 4.275 3.473 7.747 7.747 7.747s7.747-3.473 7.747-7.747v-22.193c0-4.275-3.473-7.747-7.747-7.747z"/>
    <path d="m154.5 95.82c-14.61 0-26.497-11.887-26.497-26.497v-22.193c0-14.61 11.887-26.497 26.497-26.497s26.497 11.887 26.497 26.497v22.193c0 14.61-11.887 26.497-26.497 26.497zm0-56.445c-4.275 0-7.747 3.473-7.747 7.747v22.193c0 4.275 3.473 7.747 7.747 7.747s7.747-3.473 7.747-7.747v-22.193c0-4.275-3.473-7.747-7.747-7.747z"/>
    <path d="m338.745 95.82c-14.61 0-26.497-11.887-26.497-26.497v-22.193c0-14.61 11.887-26.497 26.497-26.497s26.497 11.887 26.497 26.497v22.193c0 14.61-11.887 26.497-26.497 26.497zm0-56.445c-4.275 0-7.747 3.473-7.747 7.747v22.193c0 4.275 3.473 7.747 7.747 7.747s7.747-3.473 7.747-7.747v-22.193c0-4.275-3.473-7.747-7.747-7.747z"/>
  </g>
  <path d="m338.745 263.97c-14.61 0-26.497-11.887-26.497-26.497v-22.193c0-14.61 11.887-26.497 26.497-26.497s26.497 11.887 26.497 26.497v22.193c0 14.61-11.887 26.497-26.497 26.497zm0-56.445c-4.275 0-7.747 3.473-7.747 7.747v22.193c0 4.275 3.473 7.747 7.747 7.747s7.747-3.473 7.747-7.747v-22.193c0-4.275-3.473-7.747-7.747-7.747z" fill="#575757"/>
  <path d="m338.745 363.375c-14.61 0-26.497-11.887-26.497-26.497v-22.193c0-14.61 11.887-26.497 26.497-26.497s26.497 11.887 26.497 26.497v22.193c0 14.61-11.887 26.497-26.497 26.497zm0-56.445c-4.275 0-7.747 3.473-7.747 7.747v22.193c0 4.275 3.473 7.747 7.747 7.747s7.747-3.473 7.747-7.747v-22.193c0-4.275-3.473-7.747-7.747-7.747z" fill="#bebebe"/>
  <path d="m99.877 95.82c-5.175 0-9.375-4.2-9.375-9.375v-56.445c0-5.175 4.2-9.375 9.375-9.375s9.375 4.2 9.375 9.375v56.445c0 5.175-4.2 9.375-9.375 9.375z" fill="#575757"/>
  <path d="m209.125 95.82c-5.175 0-9.375-4.2-9.375-9.375v-56.445c0-5.175 4.2-9.375 9.375-9.375s9.375 4.2 9.375 9.375v56.445c0 5.175-4.2 9.375-9.375 9.375z" fill="#575757"/>
  <path d="m246.625 95.82c-5.175 0-9.375-4.2-9.375-9.375v-56.445c0-5.175 4.2-9.375 9.375-9.375s9.375 4.2 9.375 9.375v56.445c0 5.175-4.2 9.375-9.375 9.375z" fill="#bebebe"/>
  <path d="m284.125 95.82c-5.175 0-9.375-4.2-9.375-9.375v-56.445c0-5.175 4.2-9.375 9.375-9.375s9.375 4.2 9.375 9.375v56.445c0 5.175-4.2 9.375-9.375 9.375z" fill="#575757"/>
  <path d="m229.5 182.265c-14.61 0-26.497-11.887-26.497-26.497v-22.193c0-14.61 11.887-26.497 26.497-26.497s26.497 11.887 26.497 26.497v22.193c0 14.61-11.887 26.497-26.497 26.497zm0-56.445c-4.275 0-7.747 3.473-7.747 7.747v22.193c0 4.275 3.473 7.747 7.747 7.747s7.747-3.473 7.747-7.747v-22.193c0-4.275-3.473-7.747-7.747-7.747z" fill="#575757"/>
  <path d="m301.245 182.265c-14.61 0-26.497-11.887-26.497-26.497v-22.193c0-14.61 11.887-26.497 26.497-26.497s26.497 11.887 26.497 26.497v22.193c0 14.61-11.887 26.497-26.497 26.497zm0-56.445c-4.275 0-7.747 3.473-7.747 7.747v22.193c0 4.275 3.473 7.747 7.747 7.747s7.747-3.473 7.747-7.747v-22.193c0-4.275-3.473-7.747-7.747-7.747z" fill="#bebebe"/>
  <path d="m120.255 182.265c-14.61 0-26.497-11.887-26.497-26.497v-22.193c0-14.61 11.887-26.497 26.497-26.497s26.497 11.887 26.497 26.497v22.193c0 14.61-11.887 26.497-26.497 26.497zm0-56.445c-4.275 0-7.747 3.473-7.747 7.747v22.193c0 4.275 3.473 7.747 7.747 7.747s7.747-3.473 7.747-7.747v-22.193c0-4.275-3.473-7.747-7.747-7.747z" fill="#575757"/>
  <path d="m174.877 182.265c-5.175 0-9.375-4.2-9.375-9.375v-56.445c0-5.175 4.2-9.375 9.375-9.375s9.375 4.2 9.375 9.375v56.445c0 5.175-4.2 9.375-9.375 9.375z" fill="#bebebe"/>
  <path d="m355.875 182.265c-5.175 0-9.375-4.2-9.375-9.375v-56.445c0-5.175 4.2-9.375 9.375-9.375s9.375 4.2 9.375 9.375v56.445c0 5.175-4.2 9.375-9.375 9.375z" fill="#575757"/>
  <path d="m65.625 182.265c-5.175 0-9.375-4.2-9.375-9.375v-56.445c0-5.175 4.2-9.375 9.375-9.375s9.375 4.2 9.375 9.375v56.445c0 5.175-4.2 9.375-9.375 9.375z" fill="#bebebe"/>
  <path d="m28.125 182.265c-5.175 0-9.375-4.2-9.375-9.375v-56.445c0-5.175 4.2-9.375 9.375-9.375s9.375 4.2 9.375 9.375v56.445c0 5.175-4.2 9.375-9.375 9.375z" fill="#575757"/>
  <path d="m65.625 363.375c-5.175 0-9.375-4.2-9.375-9.375v-56.445c0-5.175 4.2-9.375 9.375-9.375s9.375 4.2 9.375 9.375v56.445c0 5.175-4.2 9.375-9.375 9.375z" fill="#bebebe"/>
  <path d="m28.125 363.375c-5.175 0-9.375-4.2-9.375-9.375v-56.445c0-5.175 4.2-9.375 9.375-9.375s9.375 4.2 9.375 9.375v56.445c0 5.175-4.2 9.375-9.375 9.375z" fill="#575757"/>
  <g>
    <path d="m182.97 245.895v-19.455c0-20.355-16.56-36.922-36.922-36.922-20.355 0-36.922 16.56-36.922 36.922v19.455c-13.028 4.01-22.522 16.166-22.522 30.497v55.085c0 17.584 14.312 31.902 31.902 31.902h55.085c17.584 0 31.902-14.312 31.902-31.902v-55.085c0-14.336-9.504-26.491-22.522-30.497zm-55.085-19.455c0-10.02 8.153-18.177 18.177-18.177s18.177 8.153 18.177 18.177v18.045h-36.354v-18.045z" fill="#ffbe00"/>
    <g fill="#fc9900">
      <path d="m146.047 320.655c-14.085 0-25.545-11.46-25.545-25.545s11.46-25.545 25.545-25.545 25.545 11.46 25.545 25.545-11.46 25.545-25.545 25.545zm0-32.34c-3.75 0-6.795 3.045-6.795 6.795s3.045 6.795 6.795 6.795 6.795-3.045 6.795-6.795-3.045-6.795-6.795-6.795z"/>
      <path d="m146.047 337.575c-5.175 0-9.375-4.2-9.375-9.375v-16.92c0-5.175 4.2-9.375 9.375-9.375s9.375 4.2 9.375 9.375v16.92c0 5.175-4.2 9.375-9.375 9.375z"/>
    </g>
  </g>
  <path d="m284.077 279.862v-68.167c0-2.978-1.41-5.775-3.8-7.533l-17.317-12.8c-3.315-2.448-7.83-2.448-11.145 0l-36.5 26.978c-2.392 1.795-3.8 4.592-3.8 7.533s1.41 5.775 3.8 7.533l4.75 3.51-4.75 3.51c-2.392 1.795-3.8 4.592-3.8 7.533s1.41 5.775 3.8 7.533l15.375 11.362v12.247c-12.48 8.56-20.022 22.667-20.022 38.062 0 25.47 20.722 46.192 46.192 46.192s46.192-20.722 46.192-46.192c0-14.85-7.147-28.688-18.975-37.33z" fill="#fc9900"/>
</svg>
