<svg xmlns="http://www.w3.org/2000/svg" version="1.1" xmlns:xlink="http://www.w3.org/1999/xlink" width="512" height="512" x="0" y="0" viewBox="0 0 24 24" style="enable-background:new 0 0 512 512" xml:space="preserve" class=""><g transform="matrix(0.8000000000000006,-9.797174393178832e-17,9.797174393178832e-17,0.8000000000000006,2.399999999999988,2.3999999999999915)"><path d="M19 20H5c-1.1 0-2-.9-2-2v-3c0-1.1.9-2 2-2h14c1.1 0 2 .9 2 2v3c0 1.1-.9 2-2 2zM5 15v3h14v-3zM19 11H5c-1.1 0-2-.9-2-2V6c0-1.1.9-2 2-2h14c1.1 0 2 .9 2 2v3c0 1.1-.9 2-2 2zM5 6v3h14V6z" fill="#f2cf3f" opacity="1" data-original="#000000" class=""></path></g></svg>