<svg id="Layer_1" enable-background="new 0 0 512 512" height="512" viewBox="0 0 512 512" width="512" xmlns="http://www.w3.org/2000/svg" xmlns:xlink="http://www.w3.org/1999/xlink"><linearGradient id="SVGID_1_" gradientUnits="userSpaceOnUse" x1="92.883" x2="419.11" y1="371.949" y2="45.722"><stop offset="0" stop-color="#fc4422"/><stop offset="1" stop-color="#ffbb32"/></linearGradient><path d="m327.488 234.499v72.46c0 9.239-7.505 16.761-16.748 16.761h-109.499c-9.242 0-16.752-7.521-16.752-16.761v-72.46c0-9.24 7.511-16.759 16.752-16.759h109.499c9.242 0 16.748 7.52 16.748 16.759zm-29.788-57.019c0-23.002-18.713-41.702-41.712-41.702-22.998 0-41.708 18.702-41.708 41.702v28.1h83.42zm157.559-93.603v161.642c0 62.07-30.354 121.841-74.314 164.55-34.044 33.074-77.12 56.995-124.166 64.865-.55.092-1.033.092-1.583 0-47.033-7.858-90.146-31.809-124.183-64.893-43.94-42.709-74.271-102.469-74.271-164.522v-161.643c0-1.88 1.006-3.49 2.696-4.314 116.404-56.779 276.736-56.727 393.125 0 1.689.824 2.696 2.434 2.696 4.315zm-115.607 150.622c0-15.561-12.387-28.374-27.936-28.891l-1.856-.062v-28.066c0-29.703-24.172-53.862-53.872-53.862-29.698 0-53.868 24.162-53.868 53.862v28.066l-1.856.062c-15.548.517-27.935 13.331-27.935 28.891v72.46c0 15.946 12.965 28.921 28.912 28.921h109.499c15.947 0 28.912-12.975 28.912-28.921z" fill="url(#SVGID_1_)"/></svg>